<svg xmlns="http://www.w3.org/2000/svg" xmlns:xlink="http://www.w3.org/1999/xlink" width="500" zoomAndPan="magnify" viewBox="0 0 375 374.999991" height="500" preserveAspectRatio="xMidYMid meet" version="1.0"><defs><clipPath id="cade27b332"><path d="M 23.765625 22.558594 L 353.765625 22.558594 L 353.765625 352.558594 L 23.765625 352.558594 Z M 23.765625 22.558594 " clip-rule="nonzero"/></clipPath><clipPath id="a1bfbb3419"><path d="M 63 66 L 314 66 L 314 287.378906 L 63 287.378906 Z M 63 66 " clip-rule="nonzero"/></clipPath><clipPath id="11d0c4d617"><path d="M 81 89 L 297 89 L 297 279.160156 L 81 279.160156 Z M 81 89 " clip-rule="nonzero"/></clipPath><clipPath id="ca8f56b9de"><path d="M 110 149 L 267 149 L 267 286.757812 L 110 286.757812 Z M 110 149 " clip-rule="nonzero"/></clipPath></defs><g clip-path="url(#cade27b332)"><path fill="#ffffff" d="M 188.765625 22.558594 C 97.636719 22.558594 23.765625 96.433594 23.765625 187.558594 C 23.765625 278.6875 97.636719 352.558594 188.765625 352.558594 C 279.890625 352.558594 353.765625 278.6875 353.765625 187.558594 C 353.765625 96.433594 279.890625 22.558594 188.765625 22.558594 " fill-opacity="1" fill-rule="nonzero"/></g><g clip-path="url(#a1bfbb3419)"><path fill="#002631" d="M 191.542969 68.347656 L 313.472656 282.160156 C 314.085938 283.238281 314.082031 284.5625 313.460938 285.640625 C 312.839844 286.714844 311.691406 287.375 310.453125 287.375 L 66.691406 287.375 C 65.449219 287.375 64.304688 286.714844 63.679688 285.640625 C 63.058594 284.5625 63.054688 283.238281 63.667969 282.160156 L 185.597656 68.347656 C 186.207031 67.277344 187.34375 66.621094 188.570312 66.621094 C 189.800781 66.621094 190.933594 67.277344 191.542969 68.347656 " fill-opacity="1" fill-rule="nonzero"/></g><g clip-path="url(#11d0c4d617)"><path fill="#ffffff" d="M 191.789062 91.617188 L 296.078125 273.949219 C 296.691406 275.027344 296.6875 276.351562 296.066406 277.425781 C 295.441406 278.496094 294.292969 279.160156 293.050781 279.160156 L 84.566406 279.160156 C 83.324219 279.160156 82.175781 278.496094 81.550781 277.425781 C 80.925781 276.351562 80.921875 275.027344 81.539062 273.949219 L 185.828125 91.617188 C 186.4375 90.550781 187.578125 89.890625 188.808594 89.890625 C 190.039062 89.890625 191.175781 90.550781 191.789062 91.617188 " fill-opacity="1" fill-rule="nonzero"/></g><g clip-path="url(#ca8f56b9de)"><path fill="#002631" d="M 191.5625 150.984375 L 265.867188 281.535156 C 266.484375 282.613281 266.480469 283.941406 265.859375 285.019531 C 265.234375 286.09375 264.089844 286.757812 262.851562 286.757812 L 114.332031 286.757812 C 113.09375 286.757812 111.949219 286.09375 111.324219 285.019531 C 110.703125 283.941406 110.699219 282.613281 111.3125 281.535156 L 185.617188 150.984375 C 186.230469 149.914062 187.363281 149.253906 188.589844 149.253906 C 189.820312 149.253906 190.953125 149.914062 191.5625 150.984375 " fill-opacity="1" fill-rule="nonzero"/></g><path stroke-linecap="round" transform="matrix(-0.376688, -0.645408, 0.624334, -0.364388, 198.394004, 96.245574)" fill="none" stroke-linejoin="miter" d="M 5.003303 5.190616 L 64.249211 5.191922 " stroke="#002631" stroke-width="10" stroke-opacity="1" stroke-miterlimit="4"/><path stroke-linecap="round" transform="matrix(-0.377986, 0.644649, -0.6236, -0.365644, 206.696857, 51.226933)" fill="none" stroke-linejoin="miter" d="M 4.998121 5.191348 L 64.249824 5.194729 " stroke="#002631" stroke-width="10" stroke-opacity="1" stroke-miterlimit="4"/></svg>